:FULLY-SPECIFIED
:FORCE-ALL-JOINTS-BE-3DOF
:DEGREES
2039
root -2.22607 15.0225 21.2094 -170.571 20.779 -177.374
lfemur -31.8887 17.4957 -7.58619
ltibia 73.6507 -0 0
lfoot -8.92119 19.4814 -0.860581
ltoes -13.6034 0 0
rfemur -30.8521 -11.5327 22.2845
rtibia 60.8625 -0 0
rfoot -21.5851 -22.1875 0.203116
rtoes -14.0851 0 0
lowerback 11.6765 0.640665 1.95732
upperback -0.713465 1.51978 3.27229
thorax -7.38622 0.789576 2.12941
lowerneck -2.89433 2.96903 -0.970038
upperneck 1.87417 4.08757 -1.38259
head 1.84188 2.00871 -0.100597
lclavicle 1.08812e-14 8.28709e-15 -4.63787e-30
lhumerus -19.8245 -13.0959 75.7898
lradius 57.919 -0 0
lwrist -12.7461 0 0
lhand -22.296 62.6147 0.401087
lfingers 7.12502 -0 0
lthumb 3.2303 162.372 10.0481
rclavicle 1.08812e-14 8.28709e-15 -4.63787e-30
rhumerus -18.0817 24.555 -73.9704
rradius 75.0125 -0 0
rwrist -45.9545 0 0
rhand -2.84093 -44.2366 -0.0512522
rfingers 7.12502 -0 0
rthumb 22.8629 -72.8601 -0.0368544
2040
root -2.23558 15.0285 21.0393 -170.67 20.2607 -177.454
lfemur -31.5032 17.1658 -7.67895
ltibia 73.7555 -0 0
lfoot -8.75965 19.1706 -0.866278
ltoes -14.1022 0 0
rfemur -31.1379 -11.2605 22.3402
rtibia 60.9314 -0 0
rfoot -21.5386 -21.9333 0.204457
rtoes -13.805 0 0
lowerback 11.6554 0.687043 1.89822
upperback -0.715484 1.56574 3.22116
thorax -7.37737 0.811924 2.10071
lowerneck -2.88174 2.77001 -1.10342
upperneck 1.88376 3.82071 -1.20933
head 1.84071 1.8764 -0.0283156
lclavicle 1.01893e-14 7.89836e-15 -4.66838e-30
lhumerus -20.6427 -13.4929 76.2954
lradius 58.7502 -0 0
lwrist -11.8733 0 0
lhand -22.0451 62.7077 0.403736
lfingers 7.12502 -0 0
lthumb 3.59308 164.338 10.1292
rclavicle 1.01893e-14 7.89836e-15 -4.66838e-30
rhumerus -16.693 24.5302 -73.4204
rradius 74.2412 -0 0
rwrist -45.2059 0 0
rhand -2.92126 -44.1996 -0.0515895
rfingers 7.12502 -0 0
rthumb 22.7858 -72.8324 -0.0370969
2041
root -2.2451 15.0344 20.8691 -170.768 19.7422 -177.533
lfemur -31.1178 16.8365 -7.77388
ltibia 73.8603 -0 0
lfoot -8.59807 18.8599 -0.871098
ltoes -14.6009 0 0
rfemur -31.4231 -10.988 22.3944
rtibia 61.0003 -0 0
rfoot -21.4922 -21.679 0.205591
rtoes -13.525 0 0
lowerback 11.6343 0.733398 1.8391
upperback -0.717544 1.6117 3.17003
thorax -7.36852 0.834278 2.07201
lowerneck -2.86868 2.57102 -1.23682
upperneck 1.89254 3.55381 -1.03618
head 1.83938 1.74409 0.0439635
lclavicle 9.49746e-15 7.50962e-15 -4.6942e-30
lhumerus -21.4659 -13.8829 76.8076
lradius 59.5814 -0 0
lwrist -11.0005 0 0
lhand -21.7942 62.8007 0.405977
lfingers 7.12502 -0 0
lthumb 3.95855 166.305 10.198
rclavicle 9.49746e-15 7.50962e-15 -4.6942e-30
rhumerus -15.3048 24.4931 -72.8712
rradius 73.47 -0 0
rwrist -44.4572 0 0
rhand -3.0016 -44.1626 -0.0518749
rfingers 7.12502 -0 0
rthumb 22.7087 -72.8046 -0.0373021
2042
root -2.25461 15.0404 20.6989 -170.865 19.2237 -177.611
lfemur -30.7325 16.5078 -7.87094
ltibia 73.9651 -0 0
lfoot -8.43648 18.5491 -0.875043
ltoes -15.0997 0 0
rfemur -31.7077 -10.7152 22.4472
rtibia 61.0692 -0 0
rfoot -21.4457 -21.4247 0.206519
rtoes -13.245 0 0
lowerback 11.6131 0.779732 1.77997
upperback -0.719645 1.65766 3.11889
thorax -7.35969 0.856635 2.04331
lowerneck -2.85516 2.37206 -1.37024
upperneck 1.9005 3.28689 -0.863114
head 1.83788 1.61178 0.116241
lclavicle 8.80557e-15 7.12089e-15 -4.71533e-30
lhumerus -22.294 -14.2657 77.3264
lradius 60.4127 -0 0
lwrist -10.1277 0 0
lhand -21.5433 62.8938 0.40781
lfingers 7.12502 -0 0
lthumb 4.32628 168.272 10.2544
rclavicle 8.80557e-15 7.12089e-15 -4.71533e-30
rhumerus -13.9176 24.444 -72.3234
rradius 72.6988 -0 0
rwrist -43.7085 0 0
rhand -3.08193 -44.1256 -0.0521084
rfingers 7.12502 -0 0
rthumb 22.6316 -72.7769 -0.0374701
